<svg xmlns="http://www.w3.org/2000/svg" width="573.0008544921875" height="86.91638946533203" viewBox="-238.06932067871094 -138.75613403320312 573.0008544921875 86.91638946533203"><title>Neo4j Graph Visualization</title><desc>Created using Neo4j (http://www.neo4j.com/)</desc><g class="layer relationships"><g class="relationship" transform="translate(305.9315341707286 -94.52380914171317) rotate(180.42017359808688)"><path class="outline" fill="#A5ABB6" stroke="none" d="M 21.40063509461097,12.933012701892217 L 21.90063509461097,12.06698729810778 A 166.0587929540435 166.0587929540435 0 0 0 92.63412981662376,33.858793416124996 L 92.56008434431678,34.856048282260446 A 167.0587929540435 167.0587929540435 0 0 1 21.40063509461097,12.933012701892217 Z M 111.9406763875454,35.16748088263299 L 111.89871125244566,34.16836180692874 A 166.0587929540435 166.0587929540435 0 0 0 183.29586290358526,14.660496070809538 L 181.88011436167625,12.015565813490356 L 189.7033249276482,11.797904515908376 L 185.18352762613063,18.187069747235114 L 183.76777908422162,15.54213948991593 A 167.0587929540435 167.0587929540435 0 0 1 111.9406763875454,35.16748088263299"/><text text-anchor="middle" pointer-events="none" font-size="8px" fill="#000000" x="102.25389340474518" y="37.79314658289678" transform="rotate(180 102.25389340474518 34.79314658289678)" font-family="sans-serif">trek</text></g><g class="relationship" transform="translate(94.19281743509451 -96.07660437560668) rotate(538.5364300573922)"><path class="outline" fill="#A5ABB6" stroke="none" d="M 25 0.5 L 65.90325585128997 0.5 L 65.90325585128997 -0.5 L 25 -0.5 Z M 85.23919335128997 0.5 L 126.14244920257994 0.5 L 126.14244920257994 3.5 L 133.14244920257994 0 L 126.14244920257994 -3.5 L 126.14244920257994 -0.5 L 85.23919335128997 -0.5 Z"/><text text-anchor="middle" pointer-events="none" font-size="8px" fill="#000000" x="75.57122460128997" y="3" transform="rotate(180 75.57122460128997 0)" font-family="sans-serif">trek</text></g><g class="relationship" transform="translate(-63.89804045830072 -92.03743486679737) rotate(535.6819115717469)"><path class="outline" fill="#A5ABB6" stroke="none" d="M 25 0.5 L 59.62428809500061 0.5 L 59.62428809500061 -0.5 L 25 -0.5 Z M 78.96022559500061 0.5 L 113.58451369000122 0.5 L 113.58451369000122 3.5 L 120.58451369000122 0 L 113.58451369000122 -3.5 L 113.58451369000122 -0.5 L 78.96022559500061 -0.5 Z"/><text text-anchor="middle" pointer-events="none" font-size="8px" fill="#000000" x="69.29225684500061" y="3" transform="rotate(180 69.29225684500061 0)" font-family="sans-serif">trek</text></g><g class="relationship" transform="translate(305.9315341707286 -94.52380914171317) rotate(180.42017359808688)"><path class="outline" fill="#A5ABB6" stroke="none" d="M 25 0.5 L 71.50892395265397 0.5 L 71.50892395265397 -0.5 L 25 -0.5 Z M 133.23548645265396 0.5 L 179.74441040530795 0.5 L 179.74441040530795 3.5 L 186.74441040530795 0 L 179.74441040530795 -3.5 L 179.74441040530795 -0.5 L 133.23548645265396 -0.5 Z"/><text text-anchor="middle" pointer-events="none" font-size="8px" fill="#000000" x="102.37220520265397" y="3" transform="rotate(180 102.37220520265397 0)" font-family="sans-serif">PublicTransport</text></g><g class="relationship" transform="translate(305.9315341707286 -94.52380914171317) rotate(180.42017359808688)"><path class="outline" fill="#A5ABB6" stroke="none" d="M 21.40063509461097,-12.933012701892217 L 21.90063509461097,-12.06698729810778 A 166.0587929540435 166.0587929540435 0 0 1 91.3043281055933,-33.75468465529161 L 91.22227461584036,-34.75131258226304 A 167.0587929540435 167.0587929540435 0 0 0 21.40063509461097,-12.933012701892217 Z M 113.28116057963432,-35.10578349840958 L 113.23117141797253,-34.10703373810105 A 166.0587929540435 166.0587929540435 0 0 1 183.29586290358526,-14.660496070809538 L 181.88011436167625,-12.015565813490356 L 189.7033249276482,-11.797904515908376 L 185.18352762613063,-18.187069747235114 L 183.76777908422162,-15.54213948991593 A 167.0587929540435 167.0587929540435 0 0 0 113.28116057963432,-35.10578349840958"/><text text-anchor="middle" pointer-events="none" font-size="8px" fill="#000000" x="102.25389340474523" y="-31.79314658289678" transform="rotate(180 102.25389340474523 -34.79314658289678)" font-family="sans-serif">road</text></g></g><g class="layer nodes"><g class="node" aria-label="graph-node180" transform="translate(305.9315341707286,-94.52380914171317)"><circle class="outline" cx="0" cy="0" r="25" fill="#57C7E3" stroke="#23b3d7" stroke-width="2px"/><text class="caption" text-anchor="middle" pointer-events="none" x="0" y="5" font-size="10px" fill="#2A2C34" font-family="sans-serif"> Darjeeling</text></g><g class="node" aria-label="graph-node182" transform="translate(-209.06929981857425,-81.07586189088065)"><circle class="outline" cx="0" cy="0" r="25" fill="#F16667" stroke="#eb2728" stroke-width="2px"/><text class="caption" text-anchor="middle" pointer-events="none" x="0" y="5" font-size="10px" fill="#FFFFFF" font-family="sans-serif"> Sandakp…</text></g><g class="node" aria-label="graph-node179" transform="translate(94.19281743509451,-96.07660437560668)"><circle class="outline" cx="0" cy="0" r="25" fill="#57C7E3" stroke="#23b3d7" stroke-width="2px"/><text class="caption" text-anchor="middle" pointer-events="none" x="0" y="5" font-size="10px" fill="#2A2C34" font-family="sans-serif"> Rimbik</text></g><g class="node" aria-label="graph-node181" transform="translate(-63.89804045830072,-92.03743486679737)"><circle class="outline" cx="0" cy="0" r="25" fill="#D9C8AE" stroke="#c0a378" stroke-width="2px"/><text class="caption" text-anchor="middle" pointer-events="none" x="0" y="5" font-size="10px" fill="#2A2C34" font-family="sans-serif"> BhikeBh…</text></g></g></svg>