<svg xmlns="http://www.w3.org/2000/svg" width="468.6823425292969" height="114.27691650390625" viewBox="-242.06932067871094 -72.1060562133789 468.6823425292969 114.27691650390625"><title>Neo4j Graph Visualization</title><desc>Created using Neo4j (http://www.neo4j.com/)</desc><g class="layer relationships"><g class="relationship" transform="translate(197.61301916694129 -43.10605455496416) rotate(517.623852064927)"><path class="outline" fill="#A5ABB6" stroke="none" d="M 21.40063509461097,12.933012701892217 L 21.90063509461097,12.06698729810778 A 101.33016268299778 101.33016268299778 0 0 0 60.66855606528617,24.941809267814378 L 60.55114620374235,25.934892811335402 A 102.33016268299778 102.33016268299778 0 0 1 21.40063509461097,12.933012701892217 Z M 79.9478314716984,26.37603408210545 L 79.87569130459578,25.378639578265364 A 101.33016268299778 101.33016268299778 0 0 0 119.1888522650922,14.279625548440123 L 117.80851886994591,11.616041549718862 L 125.63393716129951,11.502778292885681 L 121.0292967919539,17.83107088006847 L 119.64896339680762,15.167486881347209 A 102.33016268299778 102.33016268299778 0 0 1 79.9478314716984,26.37603408210545"/><text text-anchor="middle" pointer-events="none" font-size="8px" fill="#000000" x="70.25037887003226" y="29.116329323989007" transform="rotate(180 70.25037887003226 26.116329323989007)" font-family="sans-serif">trek</text></g><g class="relationship" transform="translate(60.91350427672011 13.170855739508502) rotate(191.98857226596817)"><path class="outline" fill="#A5ABB6" stroke="none" d="M 25 0.5 L 61.1471473254731 0.5 L 61.1471473254731 -0.5 L 25 -0.5 Z M 80.4830848254731 0.5 L 116.6302321509462 0.5 L 116.6302321509462 3.5 L 123.6302321509462 0 L 116.6302321509462 -3.5 L 116.6302321509462 -0.5 L 80.4830848254731 -0.5 Z"/><text text-anchor="middle" pointer-events="none" font-size="8px" fill="#000000" x="70.8151160754731" y="3" transform="rotate(180 70.8151160754731 0)" font-family="sans-serif">trek</text></g><g class="relationship" transform="translate(-84.4749612519451 -17.702109788025304) rotate(189.00278598687606)"><path class="outline" fill="#A5ABB6" stroke="none" d="M 25 0.5 L 51.93117426689663 0.5 L 51.93117426689663 -0.5 L 25 -0.5 Z M 71.26711176689663 0.5 L 98.19828603379327 0.5 L 98.19828603379327 3.5 L 105.19828603379327 0 L 98.19828603379327 -3.5 L 98.19828603379327 -0.5 L 71.26711176689663 -0.5 Z"/><text text-anchor="middle" pointer-events="none" font-size="8px" fill="#000000" x="61.59914301689663" y="3" transform="rotate(180 61.59914301689663 0)" font-family="sans-serif">trek</text></g><g class="relationship" transform="translate(197.61301916694129 -43.10605455496416) rotate(517.623852064927)"><path class="outline" fill="#A5ABB6" stroke="none" d="M 25 0.5 L 39.55195399198837 0.5 L 39.55195399198837 -0.5 L 25 -0.5 Z M 101.27851649198837 0.5 L 115.83047048397674 0.5 L 115.83047048397674 3.5 L 122.83047048397674 0 L 115.83047048397674 -3.5 L 115.83047048397674 -0.5 L 101.27851649198837 -0.5 Z"/><text text-anchor="middle" pointer-events="none" font-size="8px" fill="#000000" x="70.41523524198837" y="3" transform="rotate(180 70.41523524198837 0)" font-family="sans-serif">PublicTransport</text></g><g class="relationship" transform="translate(197.61301916694129 -43.10605455496416) rotate(517.623852064927)"><path class="outline" fill="#A5ABB6" stroke="none" d="M 21.40063509461097,-12.933012701892217 L 21.90063509461097,-12.06698729810778 A 101.33016268299778 101.33016268299778 0 0 1 59.34750755164488,-24.776818367528804 L 59.21706061921651,-25.768273660429102 A 102.33016268299778 102.33016268299778 0 0 0 21.40063509461097,-12.933012701892217 Z M 81.28811262145463,-26.270238392701373 L 81.20287483860886,-25.27387775499254 A 101.33016268299778 101.33016268299778 0 0 1 119.1888522650922,-14.279625548440123 L 117.80851886994591,-11.616041549718862 L 125.63393716129951,-11.502778292885681 L 121.0292967919539,-17.83107088006847 L 119.64896339680762,-15.167486881347209 A 102.33016268299778 102.33016268299778 0 0 0 81.28811262145463,-26.270238392701373"/><text text-anchor="middle" pointer-events="none" font-size="8px" fill="#000000" x="70.25037887003226" y="-23.116329323989007" transform="rotate(180 70.25037887003226 -26.116329323989007)" font-family="sans-serif">road</text></g></g><g class="layer nodes"><g class="node" aria-label="graph-node180" transform="translate(197.61301916694129,-43.10605455496416)"><circle class="outline" cx="0" cy="0" r="25" fill="#57C7E3" stroke="#23b3d7" stroke-width="2px"/><text class="caption" text-anchor="middle" pointer-events="none" x="0" y="5" font-size="10px" fill="#2A2C34" font-family="sans-serif"> Darjeeling</text></g><g class="node" aria-label="graph-node182" transform="translate(-213.06929981857425,-38.07586189088064)"><circle class="outline" cx="0" cy="0" r="25" fill="#F16667" stroke="#eb2728" stroke-width="2px"/><text class="caption" text-anchor="middle" pointer-events="none" x="0" y="5" font-size="10px" fill="#FFFFFF" font-family="sans-serif"> Sandakp…</text></g><g class="node" aria-label="graph-node179" transform="translate(60.91350427672011,13.170855739508502)"><circle class="outline" cx="0" cy="0" r="25" fill="#57C7E3" stroke="#23b3d7" stroke-width="2px"/><text class="caption" text-anchor="middle" pointer-events="none" x="0" y="5" font-size="10px" fill="#2A2C34" font-family="sans-serif"> Rimbik</text></g><g class="node" aria-label="graph-node181" transform="translate(-84.4749612519451,-17.702109788025304)"><circle class="outline" cx="0" cy="0" r="25" fill="#D9C8AE" stroke="#c0a378" stroke-width="2px"/><text class="caption" text-anchor="middle" pointer-events="none" x="0" y="5" font-size="10px" fill="#2A2C34" font-family="sans-serif"> BhikeBh…</text></g></g></svg>