<svg xmlns="http://www.w3.org/2000/svg" width="799.6469116210938" height="489.69683837890625" viewBox="-555.0956420898438 -246.47683715820312 799.6469116210938 489.69683837890625"><title>Neo4j Graph Visualization</title><desc>Created using Neo4j (http://www.neo4j.com/)</desc><g class="layer relationships"><g class="relationship" transform="translate(-508.7651160607352 -168.50657391594723) rotate(379.21170600565915)"><path class="outline" fill="#A5ABB6" stroke="none" d="M 21.40063509461097,12.933012701892217 L 21.90063509461097,12.06698729810778 A 108.44918148751208 108.44918148751208 0 0 0 62.844460824557764,25.78016472551107 L 62.72200010303228,26.77263808620316 A 109.44918148751208 109.44918148751208 0 0 1 21.40063509461097,12.933012701892217 Z M 84.79192582381393,27.252748027444824 L 84.71274112944107,26.255888065275073 A 108.44918148751208 108.44918148751208 0 0 0 126.21418451039922,14.336227925119404 L 124.82858736752544,11.675378331914253 L 132.65376641835687,11.546642857281448 L 128.06164736756426,17.884027382726273 L 126.67605022469048,15.223177789521122 A 109.44918148751208 109.44918148751208 0 0 1 84.79192582381393,27.252748027444824"/><text text-anchor="middle" pointer-events="none" font-size="8px" fill="#000000" x="73.75570211611341" y="30.070652295072634" font-family="sans-serif">road</text></g><g class="relationship" transform="translate(-362.56007723707376 -117.55909691137951) rotate(389.96861485109304)"><path class="outline" fill="#A5ABB6" stroke="none" d="M 25 0.5 L 111.16273745857096 0.5 L 111.16273745857096 -0.5 L 25 -0.5 Z M 130.49867495857097 0.5 L 216.66141241714192 0.5 L 216.66141241714192 3.5 L 223.66141241714192 0 L 216.66141241714192 -3.5 L 216.66141241714192 -0.5 L 130.49867495857097 -0.5 Z"/><text text-anchor="middle" pointer-events="none" font-size="8px" fill="#000000" x="120.83070620857096" y="3" font-family="sans-serif">trek</text></g><g class="relationship" transform="translate(-147.1449043032484 6.65362906779729) rotate(360.5495976323458)"><path class="outline" fill="#A5ABB6" stroke="none" d="M 25 0.5 L 144.54286845779453 0.5 L 144.54286845779453 -0.5 L 25 -0.5 Z M 163.87880595779453 0.5 L 283.42167441558905 0.5 L 283.42167441558905 3.5 L 290.42167441558905 0 L 283.42167441558905 -3.5 L 283.42167441558905 -0.5 L 163.87880595779453 -0.5 Z"/><text text-anchor="middle" pointer-events="none" font-size="8px" fill="#000000" x="154.21083720779453" y="3" font-family="sans-serif">trek</text></g><g class="relationship" transform="translate(-508.7651160607352 -168.50657391594723) rotate(379.21170600565915)"><path class="outline" fill="#A5ABB6" stroke="none" d="M 25 0.5 L 43.050475264199875 0.5 L 43.050475264199875 -0.5 L 25 -0.5 Z M 104.77703776419987 0.5 L 122.82751302839975 0.5 L 122.82751302839975 3.5 L 129.82751302839975 0 L 122.82751302839975 -3.5 L 122.82751302839975 -0.5 L 104.77703776419987 -0.5 Z"/><text text-anchor="middle" pointer-events="none" font-size="8px" fill="#000000" x="73.91375651419987" y="3" font-family="sans-serif">PublicTransport</text></g><g class="relationship" transform="translate(-508.7651160607352 -168.50657391594723) rotate(379.21170600565915)"><path class="outline" fill="#A5ABB6" stroke="none" d="M 21.40063509461097,-12.933012701892217 L 21.90063509461097,-12.06698729810778 A 108.44918148751208 108.44918148751208 0 0 1 64.16715598716922,-25.935132502347145 L 64.05689171696287,-26.929034806759333 A 109.44918148751208 109.44918148751208 0 0 0 21.40063509461097,-12.933012701892217 Z M 83.45149575436258,-27.35094570589905 L 83.38455811429598,-26.353188544891267 A 108.44918148751208 108.44918148751208 0 0 1 126.21418451039922,-14.336227925119404 L 124.82858736752544,-11.675378331914253 L 132.65376641835687,-11.546642857281448 L 128.06164736756426,-17.884027382726273 L 126.67605022469048,-15.223177789521122 A 109.44918148751208 109.44918148751208 0 0 0 83.45149575436258,-27.35094570589905"/><text text-anchor="middle" pointer-events="none" font-size="8px" fill="#000000" x="73.75570211611338" y="-24.070652295072634" font-family="sans-serif">trek</text></g><g class="relationship" transform="translate(-362.56007723707376 -117.55909691137951) rotate(336.58359509959485)"><path class="outline" fill="#A5ABB6" stroke="none" d="M 24.018736134675446,-6.953439040707552 L 24.277555179777966,-5.987513214418485 A 214.3695579833179 214.3695579833179 0 0 1 67.81970653212551,-12.959159063307936 L 67.76400471953477,-13.957606512137403 A 215.3695579833179 215.3695579833179 0 0 0 24.018736134675446,-6.953439040707552 Z M 87.13728141823162,-14.165607205374528 L 87.10302958611925,-13.166193971523313 A 214.3695579833179 214.3695579833179 0 0 1 130.78482826634942,-7.13102584686283 L 130.07076677454586,-4.217245452611529 L 137.70265943490307,-5.950512431696392 L 131.73691025542087,-11.016066372531231 L 131.0228487636173,-8.10228597827993 A 215.3695579833179 215.3695579833179 0 0 0 87.13728141823162,-14.165607205374528"/><text text-anchor="middle" pointer-events="none" font-size="8px" fill="#000000" x="77.45367087525308" y="-10.77959563234694" font-family="sans-serif">trek</text></g><g class="relationship" transform="translate(-213.91678811906485 -181.93332756609541) rotate(387.7707388845945)"><path class="outline" fill="#A5ABB6" stroke="none" d="M 24.018736134675446,-6.953439040707552 L 24.277555179777966,-5.987513214418485 A 336.25977090747415 336.25977090747415 0 0 1 99.02165221868778,-17.220751632698637 L 98.98511399188592,-18.220083888748718 A 337.25977090747415 337.25977090747415 0 0 0 24.018736134675446,-6.953439040707552 Z M 118.34650568468867,-18.371833107221164 L 118.3256359625949,-17.3720509035889 A 336.25977090747415 336.25977090747415 0 0 1 193.23662571968063,-7.311767550835377 L 192.50568513610025,-4.402175506703557 L 200.1474972532516,-6.091171529836464 L 194.21121316445445,-11.191223609677802 L 193.48027258087407,-8.281631565545982 A 337.25977090747415 337.25977090747415 0 0 0 118.34650568468867,-18.371833107221164"/><text text-anchor="middle" pointer-events="none" font-size="8px" fill="#000000" x="108.6686393699733" y="-14.934943977901128" font-family="sans-serif">trek</text></g><g class="relationship" transform="translate(-15.368617000161251 -77.38030373374073) rotate(385.36565647246823)"><path class="outline" fill="#A5ABB6" stroke="none" d="M 24.018736134675446,6.953439040707552 L 24.277555179777966,5.987513214418485 A 295.00282225754574 295.00282225754574 0 0 0 74.92423242611511,14.917398583177885 L 74.83709539021764,15.913594917729938 A 296.00282225754574 296.00282225754574 0 0 1 24.018736134675446,6.953439040707552 Z M 121.33089513413964,16.31474027275516 L 121.26096001988216,15.317188730330543 A 295.00282225754574 295.00282225754574 0 0 0 172.05417884931217,7.262519914082654 L 171.32783723979426,4.351776389434188 L 178.96697067507822,6.052846745982347 L 173.02263432866934,11.14351128028061 L 172.29629271915144,8.232767755632143 A 296.00282225754574 296.00282225754574 0 0 1 121.33089513413964,16.31474027275516"/><text text-anchor="middle" pointer-events="none" font-size="8px" fill="#000000" x="98.08042049544117" y="19.52849244467933" font-family="sans-serif">twowheeler</text></g><g class="relationship" transform="translate(-15.368617000161251 -77.38030373374073) rotate(385.36565647246823)"><path class="outline" fill="#A5ABB6" stroke="none" d="M 24.018736134675446,-6.953439040707552 L 24.277555179777966,-5.987513214418485 A 295.00282225754574 295.00282225754574 0 0 1 88.43656702688922,-15.787389613398148 L 88.39523407685564,-16.78653504187264 A 296.00282225754574 296.00282225754574 0 0 0 24.018736134675446,-6.953439040707552 Z M 107.75971265060844,-16.95361045139242 L 107.7356256886761,-15.95390058434856 A 295.00282225754574 295.00282225754574 0 0 1 172.05417884931217,-7.262519914082654 L 171.32783723979426,-4.351776389434188 L 178.96697067507822,-6.052846745982347 L 173.02263432866934,-11.14351128028061 L 172.29629271915144,-8.232767755632143 A 296.00282225754574 296.00282225754574 0 0 0 107.75971265060844,-16.95361045139242"/><text text-anchor="middle" pointer-events="none" font-size="8px" fill="#000000" x="98.08042049544103" y="-13.52849244467933" font-family="sans-serif">trek</text></g><g class="relationship" transform="translate(-213.91678811906485 -181.93332756609541) rotate(387.7707388845945)"><path class="outline" fill="#A5ABB6" stroke="none" d="M 24.018736134675446,6.953439040707552 L 24.277555179777966,5.987513214418485 A 336.25977090747415 336.25977090747415 0 0 0 85.50000804843185,16.453441403614647 L 85.42325792196159,17.450491762466584 A 337.25977090747415 337.25977090747415 0 0 1 24.018736134675446,6.953439040707552 Z M 131.91875860840457,17.814910601959184 L 131.857646159207,16.816779714473455 A 336.25977090747415 336.25977090747415 0 0 0 193.23662571968063,7.311767550835377 L 192.50568513610025,4.402175506703557 L 200.1474972532516,6.091171529836464 L 194.21121316445445,11.191223609677802 L 193.48027258087407,8.281631565545982 A 337.25977090747415 337.25977090747415 0 0 1 131.91875860840457,17.814910601959184"/><text text-anchor="middle" pointer-events="none" font-size="8px" fill="#000000" x="108.66863936997336" y="20.934943977901128" font-family="sans-serif">twowheeler</text></g><g class="relationship" transform="translate(-362.56007723707376 -117.55909691137951) rotate(336.58359509959485)"><path class="outline" fill="#A5ABB6" stroke="none" d="M 24.018736134675446,6.953439040707552 L 24.277555179777966,5.987513214418485 A 214.3695579833179 214.3695579833179 0 0 0 54.34058673702857,11.779500640108182 L 54.22200696768921,12.772445169426618 A 215.3695579833179 215.3695579833179 0 0 1 24.018736134675446,6.953439040707552 Z M 100.70160348275652,13.271472176931496 L 100.60437003805441,12.276210574521684 A 214.3695579833179 214.3695579833179 0 0 0 130.78482826634942,7.13102584686283 L 130.07076677454586,4.217245452611529 L 137.70265943490307,5.950512431696392 L 131.73691025542087,11.016066372531231 L 131.0228487636173,8.10228597827993 A 215.3695579833179 215.3695579833179 0 0 1 100.70160348275652,13.271472176931496"/><text text-anchor="middle" pointer-events="none" font-size="8px" fill="#000000" x="77.45367087525307" y="16.77959563234694" font-family="sans-serif">twowheeler</text></g><g class="relationship" transform="translate(-508.7651160607352 -168.50657391594723) rotate(452.8633601507861)"><path class="outline" fill="#A5ABB6" stroke="none" d="M 24.018736134675446,-6.953439040707552 L 24.277555179777966,-5.987513214418485 A 131.63716998789621 131.63716998789621 0 0 1 45.52292901399642,-9.846717841020592 L 45.425503394749015,-10.841960649944241 A 132.63716998789621 132.63716998789621 0 0 0 24.018736134675446,-6.953439040707552 Z M 67.49272205869154,-11.157305796037548 L 67.42377486807007,-10.159685485044719 A 131.63716998789621 131.63716998789621 0 0 1 88.77074859116175,-6.90913436695491 L 88.07741128883485,-3.9903532197631475 L 95.69679415166367,-5.777810852724116 L 89.6951983275976,-10.800842563210594 L 89.0018610252707,-7.882061416018831 A 132.63716998789621 132.63716998789621 0 0 0 67.49272205869154,-11.157305796037548"/><text text-anchor="middle" pointer-events="none" font-size="8px" fill="#000000" x="56.45968693606609" y="-7.9594512086173665" transform="rotate(180 56.45968693606609 -10.959451208617367)" font-family="sans-serif">road</text></g><g class="relationship" transform="translate(-514.7606251929441 -48.63644769659095) rotate(424.87958572570926)"><path class="outline" fill="#A5ABB6" stroke="none" d="M 21.40063509461097,-12.933012701892217 L 21.90063509461097,-12.06698729810778 A 240.77200442801924 240.77200442801924 0 0 1 129.75883948093366,-43.99817662092536 L 129.70680769319551,-44.996822050026594 A 241.77200442801924 241.77200442801924 0 0 0 21.40063509461097,-12.933012701892217 Z M 149.07624011244374,-45.22896548887837 L 149.0481574449741,-44.22935988475854 A 240.77200442801924 240.77200442801924 0 0 1 257.6406638076058,-14.892341173014566 L 256.20336182426655,-12.259061277392167 L 264.0245338946146,-11.97751652782676 L 259.5570664520581,-18.403381033844433 L 258.11976446871887,-15.770101138222033 A 241.77200442801924 241.77200442801924 0 0 0 149.07624011244374,-45.22896548887837"/><text text-anchor="middle" pointer-events="none" font-size="8px" fill="#000000" x="139.3951901367901" y="-41.80699293729819" font-family="sans-serif">trek</text></g><g class="relationship" transform="translate(-393.36067828252976 210.2844953931971) rotate(320.4078116384352)"><path class="outline" fill="#A5ABB6" stroke="none" d="M 21.40063509461097,12.933012701892217 L 21.90063509461097,12.06698729810778 A 274.4616659647982 274.4616659647982 0 0 0 133.03037904407645,47.59396279394804 L 132.93527982888668,48.58943059316118 A 275.4616659647982 275.4616659647982 0 0 1 21.40063509461097,12.933012701892217 Z M 179.42656340540236,49.089223406032374 L 179.35288674604828,48.09194122436742 A 274.4616659647982 274.4616659647982 0 0 0 291.2207069230435,14.962244772344519 L 289.7769070570581,12.33252198334554 L 297.5973600750387,12.031665549878442 L 293.14577341102404,18.46854182434316 L 291.70197354503864,15.83881903534418 A 275.4616659647982 275.4616659647982 0 0 1 179.42656340540236,49.089223406032374"/><text text-anchor="middle" pointer-events="none" font-size="8px" fill="#000000" x="156.17573285757248" y="52.321991188559025" font-family="sans-serif">twowheeler</text></g><g class="relationship" transform="translate(-393.36067828252976 210.2844953931971) rotate(320.4078116384352)"><path class="outline" fill="#A5ABB6" stroke="none" d="M 25 0.5 L 145.24999895001528 0.5 L 145.24999895001528 -0.5 L 25 -0.5 Z M 167.26171770001528 0.5 L 287.51171665003056 0.5 L 287.51171665003056 3.5 L 294.51171665003056 0 L 287.51171665003056 -3.5 L 287.51171665003056 -0.5 L 167.26171770001528 -0.5 Z"/><text text-anchor="middle" pointer-events="none" font-size="8px" fill="#000000" x="156.25585832501528" y="3" font-family="sans-serif">road</text></g><g class="relationship" transform="translate(-393.36067828252976 210.2844953931971) rotate(320.4078116384352)"><path class="outline" fill="#A5ABB6" stroke="none" d="M 21.40063509461097,-12.933012701892217 L 21.90063509461097,-12.06698729810778 A 274.4616659647982 274.4616659647982 0 0 1 146.53508890768597,-48.54867128398428 L 146.48919404974637,-49.547617559824346 A 275.4616659647982 275.4616659647982 0 0 0 21.40063509461097,-12.933012701892217 Z M 165.8551825014922,-49.75580673202472 L 165.8307736081497,-48.75610467344637 A 274.4616659647982 274.4616659647982 0 0 1 291.2207069230435,-14.962244772344519 L 289.7769070570581,-12.33252198334554 L 297.5973600750387,-12.031665549878442 L 293.14577341102404,-18.46854182434316 L 291.70197354503864,-15.83881903534418 A 275.4616659647982 275.4616659647982 0 0 0 165.8551825014922,-49.75580673202472"/><text text-anchor="middle" pointer-events="none" font-size="8px" fill="#000000" x="156.17573285757246" y="-46.321991188559025" font-family="sans-serif">trek</text></g><g class="relationship" transform="translate(-514.7606251929441 -48.63644769659095) rotate(424.87958572570926)"><path class="outline" fill="#A5ABB6" stroke="none" d="M 25 0.5 L 128.47840713740047 0.5 L 128.47840713740047 -0.5 L 25 -0.5 Z M 150.49012588740047 0.5 L 253.96853302480093 0.5 L 253.96853302480093 3.5 L 260.96853302480093 0 L 253.96853302480093 -3.5 L 253.96853302480093 -0.5 L 150.49012588740047 -0.5 Z"/><text text-anchor="middle" pointer-events="none" font-size="8px" fill="#000000" x="139.48426651240047" y="3" font-family="sans-serif">road</text></g><g class="relationship" transform="translate(-514.7606251929441 -48.63644769659095) rotate(424.87958572570926)"><path class="outline" fill="#A5ABB6" stroke="none" d="M 21.40063509461097,12.933012701892217 L 21.90063509461097,12.06698729810778 A 240.77200442801924 240.77200442801924 0 0 0 116.26774607164573,42.91433242958692 L 116.15968163409292,43.90847632125272 A 241.77200442801924 241.77200442801924 0 0 1 21.40063509461097,12.933012701892217 Z M 162.64555886880183,44.46561145901666 L 162.56135175967705,43.469163185008995 A 240.77200442801924 240.77200442801924 0 0 0 257.6406638076058,14.892341173014566 L 256.20336182426655,12.259061277392167 L 264.0245338946146,11.97751652782676 L 259.5570664520581,18.403381033844433 L 258.11976446871887,15.770101138222033 A 241.77200442801924 241.77200442801924 0 0 1 162.64555886880183,44.46561145901666"/><text text-anchor="middle" pointer-events="none" font-size="8px" fill="#000000" x="139.3951901367901" y="47.80699293729819" font-family="sans-serif">twowheeler</text></g><g class="relationship" transform="translate(-508.7651160607352 -168.50657391594723) rotate(452.8633601507861)"><path class="outline" fill="#A5ABB6" stroke="none" d="M 24.018736134675446,6.953439040707552 L 24.277555179777966,5.987513214418485 A 131.63716998789621 131.63716998789621 0 0 0 46.8500513190137,9.969851932126346 L 46.76270736822771,10.96603014623318 A 132.63716998789621 132.63716998789621 0 0 1 24.018736134675446,6.953439040707552 Z M 66.15251888081914,11.243114587062621 L 66.09367597075487,10.244847332298065 A 131.63716998789621 131.63716998789621 0 0 0 88.77074859116175,6.90913436695491 L 88.07741128883485,3.9903532197631475 L 95.69679415166367,5.777810852724116 L 89.6951983275976,10.800842563210594 L 89.0018610252707,7.882061416018831 A 132.63716998789621 132.63716998789621 0 0 1 66.15251888081914,11.243114587062621"/><text text-anchor="middle" pointer-events="none" font-size="8px" fill="#000000" x="56.45968693606611" y="13.959451208617367" transform="rotate(180 56.45968693606611 10.959451208617367)" font-family="sans-serif">trek</text></g><g class="relationship" transform="translate(-362.56007723707376 -117.55909691137951) rotate(515.6370326754447)"><path class="outline" fill="#A5ABB6" stroke="none" d="M 25 0.5 L 70.37145064715044 0.5 L 70.37145064715044 -0.5 L 25 -0.5 Z M 89.70738814715044 0.5 L 135.07883879430088 0.5 L 135.07883879430088 3.5 L 142.07883879430088 0 L 135.07883879430088 -3.5 L 135.07883879430088 -0.5 L 89.70738814715044 -0.5 Z"/><text text-anchor="middle" pointer-events="none" font-size="8px" fill="#000000" x="80.03941939715044" y="3" transform="rotate(180 80.03941939715044 0)" font-family="sans-serif">trek</text></g><g class="relationship" transform="translate(-213.91678811906485 -181.93332756609541) rotate(357.91656348889774)"><path class="outline" fill="#A5ABB6" stroke="none" d="M 24.018736134675446,-6.953439040707552 L 24.277555179777966,-5.987513214418485 A 472.0955221895314 472.0955221895314 0 0 1 133.96750028395408,-21.908333183077332 L 133.941028168548,-22.90798273522347 A 473.0955221895314 473.0955221895314 0 0 0 24.018736134675446,-6.953439040707552 Z M 153.2957222879027,-23.024461355859955 L 153.28128365017,-22.02456559842301 A 472.0955221895314 472.0955221895314 0 0 1 263.1549030832996,-7.425102659827649 L 262.41337919564194,-4.518189808703098 L 270.06128705053317,-6.179365730480538 L 264.14360160017645,-11.300986461327053 L 263.4020777125188,-8.3940736102025 A 473.0955221895314 473.0955221895314 0 0 0 153.2957222879027,-23.024461355859955"/><text text-anchor="middle" pointer-events="none" font-size="8px" fill="#000000" x="143.62078850062525" y="-19.565220137451945" font-family="sans-serif">trek</text></g><g class="relationship" transform="translate(80.17423382474627 -192.6320243673345) rotate(489.65848831140147)"><path class="outline" fill="#A5ABB6" stroke="none" d="M 21.40063509461097,12.933012701892217 L 21.90063509461097,12.06698729810778 A 103.23783694382918 103.23783694382918 0 0 0 48.336473075283365,22.779643943930296 L 48.09254041225262,23.74943611543239 A 104.23783694382918 104.23783694382918 0 0 1 21.40063509461097,12.933012701892217 Z M 94.38035176404978,24.789501214259616 L 94.18022483500802,23.809731234992896 A 103.23783694382918 103.23783694382918 0 0 0 121.07055612116916,14.295288241724858 L 119.68876615068046,11.632459580797377 L 127.5141213250814,11.51491642073914 L 122.91294274848744,17.845726456294834 L 121.53115277799874,15.182897795367353 A 104.23783694382918 104.23783694382918 0 0 1 94.38035176404978,24.789501214259616"/><text text-anchor="middle" pointer-events="none" font-size="8px" fill="#000000" x="71.18920192468971" y="29.372057174204272" transform="rotate(180 71.18920192468971 26.372057174204272)" font-family="sans-serif">twowheeler</text></g><g class="relationship" transform="translate(80.17423382474627 -192.6320243673345) rotate(489.65848831140147)"><path class="outline" fill="#A5ABB6" stroke="none" d="M 25 0.5 L 60.34632070807186 0.5 L 60.34632070807186 -0.5 L 25 -0.5 Z M 82.35803945807186 0.5 L 117.70436016614372 0.5 L 117.70436016614372 3.5 L 124.70436016614372 0 L 117.70436016614372 -3.5 L 117.70436016614372 -0.5 L 82.35803945807186 -0.5 Z"/><text text-anchor="middle" pointer-events="none" font-size="8px" fill="#000000" x="71.35218008307186" y="3" transform="rotate(180 71.35218008307186 0)" font-family="sans-serif">road</text></g><g class="relationship" transform="translate(80.17423382474627 -192.6320243673345) rotate(489.65848831140147)"><path class="outline" fill="#A5ABB6" stroke="none" d="M 21.40063509461097,-12.933012701892217 L 21.90063509461097,-12.06698729810778 A 103.23783694382918 103.23783694382918 0 0 1 61.60547339793875,-25.208463045271017 L 61.49006919613366,-26.201781659918765 A 104.23783694382918 104.23783694382918 0 0 0 21.40063509461097,-12.933012701892217 Z M 80.88619396668557,-26.637603355462517 L 80.81552250403684,-25.640103709163284 A 103.23783694382918 103.23783694382918 0 0 1 121.07055612116916,-14.295288241724858 L 119.68876615068046,-11.632459580797377 L 127.5141213250814,-11.51491642073914 L 122.91294274848744,-17.845726456294834 L 121.53115277799874,-15.182897795367353 A 104.23783694382918 104.23783694382918 0 0 0 80.88619396668557,-26.637603355462517"/><text text-anchor="middle" pointer-events="none" font-size="8px" fill="#000000" x="71.1892019246897" y="-23.372057174204272" transform="rotate(180 71.1892019246897 -26.372057174204272)" font-family="sans-serif">trek</text></g><g class="relationship" transform="translate(80.17423382474627 -192.6320243673345) rotate(349.60062936875215)"><path class="outline" fill="#A5ABB6" stroke="none" d="M 25 0.5 L 55.65098994429802 0.5 L 55.65098994429802 -0.5 L 25 -0.5 Z M 74.98692744429802 0.5 L 105.63791738859604 0.5 L 105.63791738859604 3.5 L 112.63791738859604 0 L 105.63791738859604 -3.5 L 105.63791738859604 -0.5 L 74.98692744429802 -0.5 Z"/><text text-anchor="middle" pointer-events="none" font-size="8px" fill="#000000" x="65.31895869429802" y="3" font-family="sans-serif">trek</text></g><g class="relationship" transform="translate(215.5512355875401 -217.4768165135067) rotate(461.75978113080896)"><path class="outline" fill="#A5ABB6" stroke="none" d="M 25 0.5 L 102.84507186811378 0.5 L 102.84507186811378 -0.5 L 25 -0.5 Z M 122.18100936811378 0.5 L 200.02608123622755 0.5 L 200.02608123622755 3.5 L 207.02608123622755 0 L 200.02608123622755 -3.5 L 200.02608123622755 -0.5 L 122.18100936811378 -0.5 Z"/><text text-anchor="middle" pointer-events="none" font-size="8px" fill="#000000" x="112.51304061811378" y="3" transform="rotate(180 112.51304061811378 0)" font-family="sans-serif">trek</text></g><g class="relationship" transform="translate(-213.91678811906485 -181.93332756609541) rotate(357.91656348889774)"><path class="outline" fill="#A5ABB6" stroke="none" d="M 24.018736134675446,6.953439040707552 L 24.277555179777966,5.987513214418485 A 472.0955221895314 472.0955221895314 0 0 0 120.42915385099204,21.355306304952876 L 120.3740046018352,22.353784427055416 A 473.0955221895314 473.0955221895314 0 0 1 24.018736134675446,6.953439040707552 Z M 166.86843336769482,22.633592875410784 L 166.82530557429865,21.634523311548094 A 472.0955221895314 472.0955221895314 0 0 0 263.1549030832996,7.425102659827649 L 262.41337919564194,4.518189808703098 L 270.06128705053317,6.179365730480538 L 264.14360160017645,11.300986461327053 L 263.4020777125188,8.3940736102025 A 473.0955221895314 473.0955221895314 0 0 1 166.86843336769482,22.633592875410784"/><text text-anchor="middle" pointer-events="none" font-size="8px" fill="#000000" x="143.62078850062534" y="25.565220137451945" font-family="sans-serif">twowheeler</text></g></g><g class="layer nodes"><g class="node" aria-label="graph-node180" transform="translate(-508.7651160607352,-168.50657391594723)"><circle class="outline" cx="0" cy="0" r="25" fill="#57C7E3" stroke="#23b3d7" stroke-width="2px"/><text class="caption" text-anchor="middle" pointer-events="none" x="0" y="5" font-size="10px" fill="#2A2C34" font-family="sans-serif"> Darjeeling</text></g><g class="node" aria-label="graph-node182" transform="translate(168.2622589350347,9.679198289093812)"><circle class="outline" cx="0" cy="0" r="25" fill="#F16667" stroke="#eb2728" stroke-width="2px"/><text class="caption" text-anchor="middle" pointer-events="none" x="0" y="5" font-size="10px" fill="#FFFFFF" font-family="sans-serif"> Sandakp…</text></g><g class="node" aria-label="graph-node179" transform="translate(-362.56007723707376,-117.55909691137951)"><circle class="outline" cx="0" cy="0" r="25" fill="#57C7E3" stroke="#23b3d7" stroke-width="2px"/><text class="caption" text-anchor="middle" pointer-events="none" x="0" y="5" font-size="10px" fill="#2A2C34" font-family="sans-serif"> Rimbik</text></g><g class="node" aria-label="graph-node181" transform="translate(-147.1449043032484,6.65362906779729)"><circle class="outline" cx="0" cy="0" r="25" fill="#D9C8AE" stroke="#c0a378" stroke-width="2px"/><text class="caption" text-anchor="middle" pointer-events="none" x="0" y="5" font-size="10px" fill="#2A2C34" font-family="sans-serif"> BhikeBh…</text></g><g class="node" aria-label="graph-node183" transform="translate(-213.91678811906485,-181.93332756609541)"><circle class="outline" cx="0" cy="0" r="25" fill="#D9C8AE" stroke="#c0a378" stroke-width="2px"/><text class="caption" text-anchor="middle" pointer-events="none" x="0" y="5" font-size="10px" fill="#2A2C34" font-family="sans-serif"> Sirikhola</text></g><g class="node" aria-label="graph-node184" transform="translate(-15.368617000161251,-77.38030373374073)"><circle class="outline" cx="0" cy="0" r="25" fill="#D9C8AE" stroke="#c0a378" stroke-width="2px"/><text class="caption" text-anchor="middle" pointer-events="none" x="0" y="5" font-size="10px" fill="#2A2C34" font-family="sans-serif"> Gurdum</text></g><g class="node" aria-label="graph-node185" transform="translate(-514.7606251929441,-48.63644769659095)"><circle class="outline" cx="0" cy="0" r="25" fill="#D9C8AE" stroke="#c0a378" stroke-width="2px"/><text class="caption" text-anchor="middle" pointer-events="none" x="0" y="5" font-size="10px" fill="#2A2C34" font-family="sans-serif"> Tumbling</text></g><g class="node" aria-label="graph-node186" transform="translate(-393.36067828252976,210.2844953931971)"><circle class="outline" cx="0" cy="0" r="25" fill="#D9C8AE" stroke="#c0a378" stroke-width="2px"/><text class="caption" text-anchor="middle" pointer-events="none" x="0" y="5" font-size="10px" fill="#2A2C34" font-family="sans-serif"> Gairibus</text></g><g class="node" aria-label="graph-node187" transform="translate(80.17423382474627,-192.6320243673345)"><circle class="outline" cx="0" cy="0" r="25" fill="#D9C8AE" stroke="#c0a378" stroke-width="2px"/><text class="caption" text-anchor="middle" pointer-events="none" x="0" y="5" font-size="10px" fill="#2A2C34" font-family="sans-serif"> Rammam</text></g><g class="node" aria-label="graph-node188" transform="translate(215.5512355875401,-217.4768165135067)"><circle class="outline" cx="0" cy="0" r="25" fill="#F16667" stroke="#eb2728" stroke-width="2px"/><text class="caption" text-anchor="middle" pointer-events="none" x="0" y="5" font-size="10px" fill="#FFFFFF" font-family="sans-serif"> Sabargr…</text></g></g></svg>